<mxfile host="Electron" modified="2024-05-26T09:41:58.118Z" agent="Mozilla/5.0 (Windows NT 10.0; Win64; x64) AppleWebKit/537.36 (KHTML, like Gecko) draw.io/22.1.18 Chrome/120.0.6099.199 Electron/28.1.2 Safari/537.36" etag="kfpnK0TOf-FzT4gyFUXu" version="22.1.18" type="device">
  <diagram name="第 1 页" id="ufa5qaTbAsG1rROO7jhk">
    <mxGraphModel dx="698" dy="1639" grid="1" gridSize="10" guides="1" tooltips="1" connect="1" arrows="1" fold="1" page="1" pageScale="1" pageWidth="827" pageHeight="1169" math="0" shadow="0">
      <root>
        <mxCell id="0" />
        <mxCell id="1" parent="0" />
        <mxCell id="hTGv01uHlfe21OUcQ9c8-1" value="" style="endArrow=classic;html=1;rounded=0;" edge="1" parent="1">
          <mxGeometry width="50" height="50" relative="1" as="geometry">
            <mxPoint x="120" y="240" as="sourcePoint" />
            <mxPoint x="560" y="240" as="targetPoint" />
          </mxGeometry>
        </mxCell>
        <mxCell id="hTGv01uHlfe21OUcQ9c8-2" value="" style="endArrow=classic;html=1;rounded=0;" edge="1" parent="1">
          <mxGeometry width="50" height="50" relative="1" as="geometry">
            <mxPoint x="160" y="280" as="sourcePoint" />
            <mxPoint x="160" as="targetPoint" />
          </mxGeometry>
        </mxCell>
        <mxCell id="hTGv01uHlfe21OUcQ9c8-7" value="" style="endArrow=none;html=1;rounded=0;" edge="1" parent="1">
          <mxGeometry width="50" height="50" relative="1" as="geometry">
            <mxPoint x="520" y="200" as="sourcePoint" />
            <mxPoint x="200" y="40" as="targetPoint" />
          </mxGeometry>
        </mxCell>
        <mxCell id="hTGv01uHlfe21OUcQ9c8-8" value="&lt;font style=&quot;font-size: 18px;&quot;&gt;实际利率，r&lt;sup&gt;*&lt;/sup&gt;&lt;/font&gt;" style="text;html=1;align=center;verticalAlign=middle;resizable=0;points=[];autosize=1;strokeColor=none;fillColor=none;" vertex="1" parent="1">
          <mxGeometry x="40" width="130" height="40" as="geometry" />
        </mxCell>
        <mxCell id="hTGv01uHlfe21OUcQ9c8-9" value="&lt;span style=&quot;font-size: 18px;&quot;&gt;资本净流出，&lt;br&gt;CF&lt;/span&gt;" style="text;html=1;align=center;verticalAlign=middle;resizable=0;points=[];autosize=1;strokeColor=none;fillColor=none;" vertex="1" parent="1">
          <mxGeometry x="460" y="250" width="130" height="60" as="geometry" />
        </mxCell>
        <mxCell id="hTGv01uHlfe21OUcQ9c8-11" value="" style="endArrow=none;dashed=1;html=1;rounded=0;" edge="1" parent="1">
          <mxGeometry width="50" height="50" relative="1" as="geometry">
            <mxPoint x="320" y="240" as="sourcePoint" />
            <mxPoint x="320" y="100" as="targetPoint" />
          </mxGeometry>
        </mxCell>
        <mxCell id="hTGv01uHlfe21OUcQ9c8-12" value="0" style="text;html=1;strokeColor=none;fillColor=none;align=center;verticalAlign=middle;whiteSpace=wrap;rounded=0;" vertex="1" parent="1">
          <mxGeometry x="290" y="240" width="60" height="30" as="geometry" />
        </mxCell>
        <mxCell id="hTGv01uHlfe21OUcQ9c8-13" value="" style="endArrow=classic;html=1;rounded=0;" edge="1" parent="1">
          <mxGeometry width="50" height="50" relative="1" as="geometry">
            <mxPoint x="600" y="240" as="sourcePoint" />
            <mxPoint x="1040" y="240" as="targetPoint" />
          </mxGeometry>
        </mxCell>
        <mxCell id="hTGv01uHlfe21OUcQ9c8-14" value="" style="endArrow=classic;html=1;rounded=0;" edge="1" parent="1">
          <mxGeometry width="50" height="50" relative="1" as="geometry">
            <mxPoint x="640" y="280" as="sourcePoint" />
            <mxPoint x="640" as="targetPoint" />
          </mxGeometry>
        </mxCell>
        <mxCell id="hTGv01uHlfe21OUcQ9c8-15" value="" style="endArrow=none;html=1;rounded=0;" edge="1" parent="1">
          <mxGeometry width="50" height="50" relative="1" as="geometry">
            <mxPoint x="799.83" y="240" as="sourcePoint" />
            <mxPoint x="800" y="40" as="targetPoint" />
          </mxGeometry>
        </mxCell>
        <mxCell id="hTGv01uHlfe21OUcQ9c8-16" value="&lt;font style=&quot;font-size: 18px;&quot;&gt;实际利率，r&lt;sup&gt;*&lt;/sup&gt;&lt;/font&gt;" style="text;html=1;align=center;verticalAlign=middle;resizable=0;points=[];autosize=1;strokeColor=none;fillColor=none;" vertex="1" parent="1">
          <mxGeometry x="520" width="130" height="40" as="geometry" />
        </mxCell>
        <mxCell id="hTGv01uHlfe21OUcQ9c8-17" value="&lt;span style=&quot;font-size: 18px;&quot;&gt;资本净流出，CF&lt;/span&gt;" style="text;html=1;align=center;verticalAlign=middle;resizable=0;points=[];autosize=1;strokeColor=none;fillColor=none;" vertex="1" parent="1">
          <mxGeometry x="894" y="235" width="160" height="40" as="geometry" />
        </mxCell>
        <mxCell id="hTGv01uHlfe21OUcQ9c8-19" value="0" style="text;html=1;strokeColor=none;fillColor=none;align=center;verticalAlign=middle;whiteSpace=wrap;rounded=0;" vertex="1" parent="1">
          <mxGeometry x="770" y="240" width="60" height="30" as="geometry" />
        </mxCell>
        <mxCell id="hTGv01uHlfe21OUcQ9c8-20" value="" style="endArrow=classic;html=1;rounded=0;" edge="1" parent="1">
          <mxGeometry width="50" height="50" relative="1" as="geometry">
            <mxPoint x="1080" y="240" as="sourcePoint" />
            <mxPoint x="1520" y="240" as="targetPoint" />
          </mxGeometry>
        </mxCell>
        <mxCell id="hTGv01uHlfe21OUcQ9c8-21" value="" style="endArrow=classic;html=1;rounded=0;" edge="1" parent="1">
          <mxGeometry width="50" height="50" relative="1" as="geometry">
            <mxPoint x="1120" y="280" as="sourcePoint" />
            <mxPoint x="1120" as="targetPoint" />
          </mxGeometry>
        </mxCell>
        <mxCell id="hTGv01uHlfe21OUcQ9c8-22" value="" style="endArrow=none;html=1;rounded=0;" edge="1" parent="1">
          <mxGeometry width="50" height="50" relative="1" as="geometry">
            <mxPoint x="1480" y="80" as="sourcePoint" />
            <mxPoint x="1150" y="80" as="targetPoint" />
          </mxGeometry>
        </mxCell>
        <mxCell id="hTGv01uHlfe21OUcQ9c8-23" value="&lt;font style=&quot;font-size: 18px;&quot;&gt;实际利率，r&lt;sup&gt;*&lt;/sup&gt;&lt;/font&gt;" style="text;html=1;align=center;verticalAlign=middle;resizable=0;points=[];autosize=1;strokeColor=none;fillColor=none;" vertex="1" parent="1">
          <mxGeometry x="1000" width="130" height="40" as="geometry" />
        </mxCell>
        <mxCell id="hTGv01uHlfe21OUcQ9c8-24" value="&lt;span style=&quot;font-size: 18px;&quot;&gt;资本净流出，CF&lt;/span&gt;" style="text;html=1;align=center;verticalAlign=middle;resizable=0;points=[];autosize=1;strokeColor=none;fillColor=none;" vertex="1" parent="1">
          <mxGeometry x="1374" y="235" width="160" height="40" as="geometry" />
        </mxCell>
        <mxCell id="hTGv01uHlfe21OUcQ9c8-25" value="" style="endArrow=none;dashed=1;html=1;rounded=0;" edge="1" parent="1">
          <mxGeometry width="50" height="50" relative="1" as="geometry">
            <mxPoint x="1280" y="240" as="sourcePoint" />
            <mxPoint x="1280" y="80" as="targetPoint" />
          </mxGeometry>
        </mxCell>
        <mxCell id="hTGv01uHlfe21OUcQ9c8-26" value="0" style="text;html=1;strokeColor=none;fillColor=none;align=center;verticalAlign=middle;whiteSpace=wrap;rounded=0;" vertex="1" parent="1">
          <mxGeometry x="1250" y="240" width="60" height="30" as="geometry" />
        </mxCell>
        <mxCell id="hTGv01uHlfe21OUcQ9c8-27" value="" style="shape=curlyBracket;whiteSpace=wrap;html=1;rounded=1;labelPosition=left;verticalLabelPosition=middle;align=right;verticalAlign=middle;rotation=-90;" vertex="1" parent="1">
          <mxGeometry x="230" y="190" width="20" height="140" as="geometry" />
        </mxCell>
        <mxCell id="hTGv01uHlfe21OUcQ9c8-28" value="CF &amp;lt; 0，从国外借款" style="text;html=1;align=center;verticalAlign=middle;resizable=0;points=[];autosize=1;strokeColor=none;fillColor=none;" vertex="1" parent="1">
          <mxGeometry x="170" y="270" width="130" height="30" as="geometry" />
        </mxCell>
        <mxCell id="hTGv01uHlfe21OUcQ9c8-29" value="" style="shape=curlyBracket;whiteSpace=wrap;html=1;rounded=1;labelPosition=left;verticalLabelPosition=middle;align=right;verticalAlign=middle;rotation=-90;" vertex="1" parent="1">
          <mxGeometry x="390" y="190" width="20" height="140" as="geometry" />
        </mxCell>
        <mxCell id="hTGv01uHlfe21OUcQ9c8-30" value="CF &amp;gt; 0，借款给国外" style="text;html=1;align=center;verticalAlign=middle;resizable=0;points=[];autosize=1;strokeColor=none;fillColor=none;" vertex="1" parent="1">
          <mxGeometry x="330" y="270" width="130" height="30" as="geometry" />
        </mxCell>
        <mxCell id="hTGv01uHlfe21OUcQ9c8-32" value="(a)，大型开放经济" style="text;html=1;align=center;verticalAlign=middle;resizable=0;points=[];autosize=1;strokeColor=none;fillColor=none;" vertex="1" parent="1">
          <mxGeometry x="260" y="310" width="120" height="30" as="geometry" />
        </mxCell>
        <mxCell id="hTGv01uHlfe21OUcQ9c8-33" value="(b)，封闭经济" style="text;html=1;align=center;verticalAlign=middle;resizable=0;points=[];autosize=1;strokeColor=none;fillColor=none;" vertex="1" parent="1">
          <mxGeometry x="750" y="310" width="100" height="30" as="geometry" />
        </mxCell>
        <mxCell id="hTGv01uHlfe21OUcQ9c8-34" value="(c)，小型开放经济" style="text;html=1;align=center;verticalAlign=middle;resizable=0;points=[];autosize=1;strokeColor=none;fillColor=none;" vertex="1" parent="1">
          <mxGeometry x="1220" y="310" width="120" height="30" as="geometry" />
        </mxCell>
      </root>
    </mxGraphModel>
  </diagram>
</mxfile>
